<svg xmlns="http://www.w3.org/2000/svg" xmlns:xlink="http://www.w3.org/1999/xlink" viewBox="0 0 383 383"><style>.B{stroke:#000}.C{stroke-width:.5}.D{stroke-linejoin:bevel}</style><defs><path d="M156 372V228m0 0h72m-72 24h72m-72 24h72m-72 24h72m-72 24h72m-72 24h72m-48 24V228m24 144V228m24 144V228" id="A"/><path d="m83.5 227.5 72 72-72 72-72-72 72-72z" fill="#fff" id="B"/><path d="m83.5 251.5 48 48-48 48-48-48 48-48z" fill="none" id="C"/><path d="M71.5 263.5h24v24h-24zm-24 24h24v24h-24zm24 24h24v24h-24zm24-24h24v24h-24z" id="D"/></defs><path fill="#fff" d="M11.5 11.5h360v360h-360z"/><path d="M155.5 347.5h48v-120h24l-36-36-36 36h24v96h-24v24" fill="#ff0"/><path d="M35.5 155.5v48h120v24l36-36-36-36v24h-96v-24h-24" fill="#0f0"/><path d="M227.5 35.5h-48v120h-24l36 36 36-36h-24v-96h24v-24" fill="red"/><path d="M347.5 227.5v-48h-120v-24l-36 36 36 36v-24h96v24h24" fill="#00f"/><path fill="#ff0" d="M11.5 227.5h144v144h-144z"/><path fill="#0f0" d="M11.5 11.5h144v144h-144z"/><path fill="red" d="M227.5 11.5h144v144h-144z"/><path fill="#00f" d="M227.5 227.5h144v144h-144z"/><g fill="none" class="B"><path d="M11.5 11.5h360v360h-360z"/><g transform="translate(-.5 -.5)" class="C"><use xlink:href="#A"/><use xlink:href="#A" transform="rotate(90 192 192)"/><use xlink:href="#A" transform="rotate(180 192 192)"/><use xlink:href="#A" transform="rotate(270 192 192)"/><path d="m156 228 72-72m-72 0 72 72"/></g></g><g class="B C"><use xlink:href="#B"/><use xlink:href="#C"/><use xlink:href="#D" fill="#ff0" class="D"/></g><g transform="translate(0 -216)" class="B C"><use xlink:href="#B"/><use xlink:href="#C"/><use xlink:href="#D" fill="#0f0" class="D"/></g><g transform="translate(216)" class="B C"><use xlink:href="#B"/><use xlink:href="#C"/><use xlink:href="#D" fill="#00f" class="D"/></g><g transform="translate(216 -216)" class="B C"><use xlink:href="#B"/><use xlink:href="#C"/><use xlink:href="#D" fill="red" class="D"/></g></svg>